#N canvas 974 49 479 452 10;
#X obj 201 318 pack f f;
#X obj 257 52 notein 9;
#X obj 171 86 % 12;
#X obj 201 277 + 12;
#X obj 145 245 spigot;
#X obj 199 245 spigot;
#X floatatom 195 198 5 0 0 0 - - -;
#X msg 117 158 0;
#X msg 196 158 1;
#X msg 157 158 1;
#X msg 236 158 0;
#X floatatom 140 199 5 0 0 0 - - -;
#X text 125 14 bass midi ch 9;
#X obj 158 129 moses 7;
#X text 29 381 correct bass note range;
#X obj 121 348 noteout 5;
#X obj 39 118 print Bass;
#X connect 0 0 15 0;
#X connect 1 0 2 0;
#X connect 1 0 4 0;
#X connect 1 0 5 0;
#X connect 1 1 0 1;
#X connect 2 0 13 0;
#X connect 3 0 0 0;
#X connect 4 0 0 0;
#X connect 5 0 3 0;
#X connect 6 0 5 1;
#X connect 7 0 6 0;
#X connect 8 0 6 0;
#X connect 9 0 11 0;
#X connect 10 0 11 0;
#X connect 11 0 4 1;
#X connect 13 0 7 0;
#X connect 13 0 9 0;
#X connect 13 1 8 0;
#X connect 13 1 10 0;
