#N canvas 471 273 851 497 10;
#X obj 75 37 vsl 30 128 0 127 0 0 empty empty empty 0 -9 0 10 -262144
-1 -1 6300 1;
#X obj 76 188 int;
#X floatatom 75 244 5 0 0 0 - - -, f 5;
#X obj 3 9 loadbang;
#X obj 74 5 ctlin 8 17;
#X obj 75 216 - 63;
#X obj 77 285 +;
#X msg 3 142 63;
#X obj 149 51 notein 25;
#X obj 139 122 spigot;
#X obj 248 93 tgl 15 0 empty empty empty 17 7 0 10 -262144 -1 -1 0
1;
#X obj 194 122 spigot;
#X obj 396 122 spigot;
#X obj 495 84 tgl 15 0 empty empty empty 17 7 0 10 -262144 -1 -1 0
1;
#X obj 460 120 spigot;
#X obj 402 52 notein 19;
#X obj 626 322 noteout 1;
#X obj 636 120 spigot;
#X obj 763 81 tgl 15 0 empty empty empty 17 7 0 10 -262144 -1 -1 0
1;
#X obj 714 122 spigot;
#X obj 651 55 notein 21;
#X obj 330 51 vsl 30 128 0 127 0 0 empty empty empty 0 -9 0 10 -262144
-1 -1 6300 1;
#X obj 335 194 int;
#X floatatom 333 254 5 0 0 0 - - -, f 5;
#X obj 333 228 - 63;
#X obj 334 291 +;
#X obj 572 198 int;
#X floatatom 573 259 5 0 0 0 - - -, f 5;
#X obj 570 232 - 63;
#X obj 575 291 +;
#X obj 572 49 vsl 30 128 0 127 0 0 empty empty empty 0 -9 0 10 -262144
-1 -1 6300 1;
#X obj 328 11 ctlin 9 17;
#X obj 571 16 ctlin 10 17;
#X obj 14 350 print bassoff;
#X obj 276 353 print cplusoff;
#X obj 541 357 print chdoff;
#X obj 215 8 ctlin 56 17;
#X obj 453 9 ctlin 57 17;
#X obj 722 17 ctlin 58 17;
#X obj 136 316 noteout 1;
#X obj 379 319 noteout 1;
#X connect 0 0 1 0;
#X connect 1 0 5 0;
#X connect 2 0 6 1;
#X connect 3 0 7 0;
#X connect 4 0 0 0;
#X connect 5 0 2 0;
#X connect 5 0 33 0;
#X connect 6 0 39 0;
#X connect 7 0 0 0;
#X connect 7 0 21 0;
#X connect 7 0 30 0;
#X connect 8 0 9 0;
#X connect 8 1 11 0;
#X connect 9 0 6 0;
#X connect 10 0 9 1;
#X connect 10 0 11 1;
#X connect 11 0 39 1;
#X connect 12 0 25 0;
#X connect 13 0 12 1;
#X connect 13 0 14 1;
#X connect 14 0 40 1;
#X connect 15 0 12 0;
#X connect 15 1 14 0;
#X connect 17 0 29 0;
#X connect 18 0 17 1;
#X connect 18 0 19 1;
#X connect 19 0 16 1;
#X connect 20 0 17 0;
#X connect 20 1 19 0;
#X connect 21 0 22 0;
#X connect 22 0 24 0;
#X connect 23 0 25 1;
#X connect 24 0 23 0;
#X connect 24 0 34 0;
#X connect 25 0 40 0;
#X connect 26 0 28 0;
#X connect 27 0 29 1;
#X connect 28 0 27 0;
#X connect 28 0 35 0;
#X connect 29 0 16 0;
#X connect 30 0 26 0;
#X connect 31 0 21 0;
#X connect 32 0 30 0;
#X connect 36 0 10 0;
#X connect 37 0 13 0;
#X connect 38 0 18 0;
