#N canvas 132 82 1616 925 10;
#X obj 3 9 loadbang;
#X msg 3 142 63;
#X obj 441 133 spigot;
#X obj 534 101 tgl 15 0 empty empty empty 17 7 0 10 -262144 -1 -1 0
1;
#X obj 505 131 spigot;
#X obj 447 63 notein 19;
#X obj 158 513 spigot;
#X obj 285 474 tgl 15 0 empty empty empty 17 7 0 10 -262144 -1 -1 0
1;
#X obj 236 515 spigot;
#X obj 173 448 notein 21;
#X obj 375 62 vsl 30 128 0 127 0 0 empty empty empty 0 -9 0 10 -262144
-1 -1 6300 1;
#X obj 380 205 int;
#X floatatom 378 265 5 0 0 0 - - -, f 5;
#X obj 378 239 - 63;
#X obj 379 302 +;
#X obj 94 591 int;
#X floatatom 95 652 5 0 0 0 - - -, f 5;
#X obj 92 625 - 63;
#X obj 97 684 +;
#X obj 94 442 vsl 30 128 0 127 0 0 empty empty empty 0 -9 0 10 -262144
-1 -1 6300 1;
#X obj 616 19 ctlin 60 17;
#X obj 617 56 bng 15 250 50 0 empty empty empty 17 7 0 10 -262144 -1
-1;
#X obj 618 108 i;
#X obj 671 108 + 1;
#X obj 618 149 % 4;
#X obj 604 187 & 1;
#X obj 643 186 & 2;
#X obj 423 335 noteout 2;
#X obj 150 715 noteout 3;
#X obj 373 22 ctlin 12 17;
#X obj 796 131 spigot;
#X obj 895 93 tgl 15 0 empty empty empty 17 7 0 10 -262144 -1 -1 0
1;
#X obj 860 129 spigot;
#X obj 779 328 noteout 2;
#X obj 802 61 notein 20;
#X obj 730 60 vsl 30 128 0 127 0 0 empty empty empty 0 -9 0 10 -262144
-1 -1 0 1;
#X obj 735 203 int;
#X floatatom 733 263 5 0 0 0 - - -, f 5;
#X obj 733 237 - 63;
#X obj 734 300 +;
#X obj 728 20 ctlin 12 17;
#X obj 321 364 print chdplus1_2;
#X obj 336 445 bng 15 250 50 0 empty empty empty 17 7 0 10 -262144
-1 -1;
#X obj 337 497 i;
#X obj 390 497 + 1;
#X obj 337 538 % 4;
#X obj 323 576 & 1;
#X obj 362 575 & 2;
#X obj 515 520 spigot;
#X obj 614 482 tgl 15 0 empty empty empty 17 7 0 10 -262144 -1 -1 0
1;
#X obj 579 518 spigot;
#X obj 449 449 vsl 30 128 0 127 0 0 empty empty empty 0 -9 0 10 -262144
-1 -1 0 1;
#X obj 454 592 int;
#X floatatom 452 652 5 0 0 0 - - -, f 5;
#X obj 452 626 - 63;
#X obj 453 689 +;
#X obj 336 408 ctlin 61 17;
#X obj 93 409 ctlin 13 17;
#X obj 447 409 ctlin 13 17;
#X obj 521 450 notein 22;
#X obj 498 716 noteout 3;
#X obj 63 750 print autochd1_2;
#X obj 728 507 spigot;
#X obj 855 468 tgl 15 0 empty empty empty 17 7 0 10 -262144 -1 -1 0
1;
#X obj 806 509 spigot;
#X obj 664 585 int;
#X floatatom 665 646 5 0 0 0 - - -, f 5;
#X obj 662 619 - 63;
#X obj 667 678 +;
#X obj 664 436 vsl 30 128 0 127 0 0 empty empty empty 0 -9 0 10 -262144
-1 -1 6300 1;
#X obj 906 439 bng 15 250 50 0 empty empty empty 17 7 0 10 -262144
-1 -1;
#X obj 907 491 i;
#X obj 960 491 + 1;
#X obj 907 532 % 4;
#X obj 893 570 & 1;
#X obj 932 569 & 2;
#X obj 1085 514 spigot;
#X obj 1184 476 tgl 15 0 empty empty empty 17 7 0 10 -262144 -1 -1
0 1;
#X obj 1149 512 spigot;
#X obj 1019 443 vsl 30 128 0 127 0 0 empty empty empty 0 -9 0 10 -262144
-1 -1 0 1;
#X obj 1024 586 int;
#X floatatom 1022 646 5 0 0 0 - - -, f 5;
#X obj 1022 620 - 63;
#X obj 1023 683 +;
#X obj 663 403 ctlin 14 17;
#X obj 1017 402 ctlin 14 17;
#X obj 906 402 ctlin 62 17;
#X obj 743 442 notein 23;
#X obj 1091 443 notein 24;
#X obj 718 709 noteout 4;
#X obj 1068 707 noteout 4;
#X obj 633 744 print autochd3_4;
#X floatatom 552 188 5 0 0 0 - - -, f 5;
#X connect 0 0 1 0;
#X connect 1 0 10 0;
#X connect 1 0 19 0;
#X connect 1 0 69 0;
#X connect 1 0 35 0;
#X connect 2 0 14 0;
#X connect 3 0 2 1;
#X connect 3 0 4 1;
#X connect 4 0 27 1;
#X connect 5 0 2 0;
#X connect 5 1 4 0;
#X connect 6 0 18 0;
#X connect 7 0 6 1;
#X connect 7 0 8 1;
#X connect 8 0 28 1;
#X connect 9 0 6 0;
#X connect 9 1 8 0;
#X connect 10 0 11 0;
#X connect 11 0 13 0;
#X connect 12 0 14 1;
#X connect 13 0 12 0;
#X connect 13 0 41 0;
#X connect 14 0 27 0;
#X connect 15 0 17 0;
#X connect 16 0 18 1;
#X connect 17 0 16 0;
#X connect 17 0 61 0;
#X connect 18 0 28 0;
#X connect 19 0 15 0;
#X connect 20 0 21 0;
#X connect 21 0 22 0;
#X connect 22 0 23 0;
#X connect 22 0 24 0;
#X connect 23 0 22 1;
#X connect 24 0 25 0;
#X connect 24 0 26 0;
#X connect 24 0 92 0;
#X connect 25 0 3 0;
#X connect 26 0 31 0;
#X connect 29 0 10 0;
#X connect 30 0 39 0;
#X connect 31 0 30 1;
#X connect 31 0 32 1;
#X connect 32 0 33 1;
#X connect 34 0 30 0;
#X connect 34 1 32 0;
#X connect 35 0 36 0;
#X connect 36 0 38 0;
#X connect 37 0 39 1;
#X connect 38 0 37 0;
#X connect 39 0 33 0;
#X connect 40 0 35 0;
#X connect 42 0 43 0;
#X connect 43 0 44 0;
#X connect 43 0 45 0;
#X connect 44 0 43 1;
#X connect 45 0 46 0;
#X connect 45 0 47 0;
#X connect 46 0 7 0;
#X connect 47 0 49 0;
#X connect 48 0 55 0;
#X connect 49 0 48 1;
#X connect 49 0 50 1;
#X connect 50 0 60 1;
#X connect 51 0 52 0;
#X connect 52 0 54 0;
#X connect 53 0 55 1;
#X connect 54 0 53 0;
#X connect 55 0 60 0;
#X connect 56 0 42 0;
#X connect 57 0 19 0;
#X connect 58 0 51 0;
#X connect 59 0 48 0;
#X connect 59 1 50 0;
#X connect 62 0 68 0;
#X connect 63 0 62 1;
#X connect 63 0 64 1;
#X connect 64 0 89 1;
#X connect 65 0 67 0;
#X connect 66 0 68 1;
#X connect 67 0 66 0;
#X connect 67 0 91 0;
#X connect 68 0 89 0;
#X connect 69 0 65 0;
#X connect 70 0 71 0;
#X connect 71 0 72 0;
#X connect 71 0 73 0;
#X connect 72 0 71 1;
#X connect 73 0 74 0;
#X connect 73 0 75 0;
#X connect 74 0 63 0;
#X connect 75 0 77 0;
#X connect 76 0 83 0;
#X connect 77 0 76 1;
#X connect 77 0 78 1;
#X connect 78 0 90 1;
#X connect 79 0 80 0;
#X connect 80 0 82 0;
#X connect 81 0 83 1;
#X connect 82 0 81 0;
#X connect 83 0 90 0;
#X connect 84 0 69 0;
#X connect 85 0 79 0;
#X connect 86 0 70 0;
#X connect 87 0 62 0;
#X connect 87 1 64 0;
#X connect 88 0 76 0;
#X connect 88 1 78 0;
