#N canvas 435 54 1187 895 10;
#X obj 35 17 vsl 40 200 0 127 0 0 empty empty empty 0 -9 0 10 -262144
-1 -1 0 1;
#X floatatom 36 251 5 0 0 0 - - -;
#X obj 36 229 int;
#X floatatom 23 350 5 0 0 0 - - -;
#X obj 379 169 table pitches;
#X msg 365 239 \; pitches resize 128;
#X msg 327 403 \; pitches bounds 0 127 127 0;
#X obj 94 294 tabread pitches;
#X obj 155 217 f;
#X obj 203 216 + 1;
#X obj 155 176 bng 15 250 50 0 empty empty empty 17 7 0 10 -262144
-1 -1;
#X floatatom 155 239 5 0 0 0 - - -;
#X msg 193 178 0;
#X obj 94 325 makenote 85 50;
#X text 301 49 17 18 19 71 72 78 79;
#X text 305 95 89 90 91 92 93 94;
#X obj 154 104 tgl 15 0 empty empty empty 17 7 0 10 -262144 -1 -1 0
1;
#X obj 154 138 metro 400;
#X obj 155 266 % 128;
#X obj 305 169 loadbang;
#X obj 305 191 t b b b;
#X msg 350 286 \; pitches 0 0 1 2 3 4 5 6 7 8 9 10 11 12 13 14 15 16
89 90 91 20 21 22 23 24 25 26 27 28 29 30 31 32 33 34 35 36 37 38 39
40 41 42 43 44 45 46 47 48 49 50 51 52 53 54 55 56 57 58 59 60 61 62
63 64 65 66 67 68 69 70 92 93 73 74 75 76 77 89 94 80 81 82 83 84 85
86 87 88 89 90 91 92 93 94 95 96 97 98 99 100 101 102 103 104 105 106
107 108 109 110 111 112 113 114 115 116 117 118 119 120 121 122 123
124 125 126 127;
#X obj 154 63 loadbang;
#X obj 95 361 noteout 26;
#X obj 126 398 makefilename note:%d;
#X obj 65 439 print note;
#X connect 0 0 2 0;
#X connect 1 0 13 0;
#X connect 2 0 1 0;
#X connect 3 0 25 0;
#X connect 7 0 13 0;
#X connect 7 0 3 0;
#X connect 8 0 9 0;
#X connect 8 0 11 0;
#X connect 9 0 8 1;
#X connect 10 0 8 0;
#X connect 11 0 18 0;
#X connect 12 0 8 0;
#X connect 13 0 23 0;
#X connect 13 1 23 1;
#X connect 16 0 17 0;
#X connect 17 0 10 0;
#X connect 18 0 7 0;
#X connect 19 0 20 0;
#X connect 20 0 6 0;
#X connect 20 1 21 0;
#X connect 20 2 5 0;
#X connect 22 0 16 0;
