#N canvas 818 246 721 395 10;
#X obj 166 195 pack f f;
#X obj 255 195 pack f f;
#X floatatom 282 52 5 0 0 0 - - -, f 5;
#X obj 282 22 int;
#X obj 622 37 int;
#X msg 592 123 A;
#X msg 652 123 B;
#X msg 319 123 C;
#X msg 382 123 D;
#X msg 442 123 E;
#X obj 622 76 t b f;
#X symbolatom 484 279 10 0 0 0 - - -, f 10;
#X obj 484 233 pack s f;
#X obj 341 93 select 0 1 2 3 4 5 6 7 8 9 10 11;
#X obj 341 69 mod 12;
#X msg 470 123 F;
#X msg 534 123 G;
#X obj 622 15 / 12;
#X msg 352 123 C#;
#X msg 411 123 Eb;
#X msg 503 123 F#;
#X msg 563 123 G#;
#X msg 622 123 Bb;
#X obj 649 101 - 1;
#X obj 341 43 t f f;
#X text 558 277 <-- MIDI note name;
#X msg 484 256 symbol \$1\$2;
#X obj 206 128 moses 65;
#X obj 390 345 print;
#X obj 59 56 vsl 50 200 0 127 0 0 empty empty empty 0 -9 0 10 -262144
-1 -1 8700 1;
#X obj 206 81 notein 17;
#X obj 166 237 noteout 17;
#X obj 255 237 noteout 18;
#X obj 17 16 ctlin 0 17;
#X obj 391 308 makefilename note:%s;
#X connect 0 0 31 0;
#X connect 1 0 32 0;
#X connect 2 0 24 0;
#X connect 2 0 27 1;
#X connect 3 0 2 0;
#X connect 4 0 10 0;
#X connect 5 0 12 0;
#X connect 6 0 12 0;
#X connect 7 0 12 0;
#X connect 8 0 12 0;
#X connect 9 0 12 0;
#X connect 10 0 12 0;
#X connect 10 1 23 0;
#X connect 12 0 26 0;
#X connect 13 0 7 0;
#X connect 13 1 18 0;
#X connect 13 2 8 0;
#X connect 13 3 19 0;
#X connect 13 4 9 0;
#X connect 13 5 15 0;
#X connect 13 6 20 0;
#X connect 13 7 16 0;
#X connect 13 8 21 0;
#X connect 13 9 5 0;
#X connect 13 10 22 0;
#X connect 13 11 6 0;
#X connect 14 0 13 0;
#X connect 15 0 12 0;
#X connect 16 0 12 0;
#X connect 17 0 4 0;
#X connect 18 0 12 0;
#X connect 19 0 12 0;
#X connect 20 0 12 0;
#X connect 21 0 12 0;
#X connect 22 0 12 0;
#X connect 23 0 12 1;
#X connect 24 0 14 0;
#X connect 24 1 17 0;
#X connect 26 0 11 0;
#X connect 26 0 34 0;
#X connect 27 0 0 0;
#X connect 27 1 1 0;
#X connect 29 0 3 0;
#X connect 30 0 27 0;
#X connect 30 1 1 1;
#X connect 30 1 0 1;
#X connect 33 0 29 0;
#X connect 34 0 28 0;
