#N canvas 941 548 582 435 10;
#X obj 201 318 pack f f;
#X obj 171 86 % 12;
#X obj 201 277 + 12;
#X obj 145 245 spigot;
#X obj 199 245 spigot;
#X floatatom 195 198 5 0 0 0 - - -;
#X msg 117 158 0;
#X msg 196 158 1;
#X msg 157 158 1;
#X msg 236 158 0;
#X floatatom 140 199 5 0 0 0 - - -;
#X obj 158 129 moses 7;
#X obj 163 360 noteout 9;
#X text 29 381 correct bass note range;
#X obj 400 122 noteout 6;
#X obj 351 68 % 12;
#X obj 334 103 print Keys;
#X obj 405 36 notein 5;
#X connect 0 0 12 0;
#X connect 1 0 11 0;
#X connect 2 0 0 0;
#X connect 3 0 0 0;
#X connect 4 0 2 0;
#X connect 5 0 4 1;
#X connect 6 0 5 0;
#X connect 7 0 5 0;
#X connect 8 0 10 0;
#X connect 9 0 10 0;
#X connect 10 0 3 1;
#X connect 11 0 6 0;
#X connect 11 0 8 0;
#X connect 11 1 7 0;
#X connect 11 1 9 0;
#X connect 17 0 15 0;
#X connect 17 0 14 0;
#X connect 17 1 14 1;
