#N canvas 625 185 806 602 10;
#X obj 74 41 vsl 30 128 0 127 0 0 empty empty empty 0 -9 0 10 -262144
-1 -1 6300 1;
#X obj 74 197 int;
#X floatatom 74 244 5 0 0 0 - - -, f 5;
#X obj 152 41 vsl 30 128 0 127 0 0 empty empty empty 0 -9 0 10 -262144
-1 -1 6300 1;
#X obj 152 197 int;
#X obj 230 41 vsl 30 128 0 127 0 0 empty empty empty 0 -9 0 10 -262144
-1 -1 6300 1;
#X obj 230 197 int;
#X obj 314 40 vsl 30 128 0 127 0 0 empty empty empty 0 -9 0 10 -262144
-1 -1 6300 1;
#X obj 314 196 int;
#X obj 6 41 loadbang;
#X obj 74 5 ctlin 8 17;
#X obj 152 5 ctlin 9 17;
#X obj 230 4 ctlin 10 17;
#X obj 314 4 ctlin 11 17;
#X obj 74 220 - 63;
#X floatatom 152 246 5 0 0 0 - - -, f 5;
#X obj 152 222 - 63;
#X floatatom 230 246 5 0 0 0 - - -, f 5;
#X obj 230 222 - 63;
#X floatatom 314 246 5 0 0 0 - - -, f 5;
#X obj 314 222 - 63;
#X obj 74 267 +;
#X obj 152 267 +;
#X obj 230 270 +;
#X obj 314 269 +;
#X msg 25 9 63;
#X obj 62 305 noteout 17;
#X obj 145 305 noteout 18;
#X obj 222 305 noteout 19;
#X obj 302 304 noteout 20;
#X obj 398 39 vsl 30 128 0 127 0 0 empty empty empty 0 -9 0 10 -262144
-1 -1 6300 1;
#X obj 398 195 int;
#X floatatom 398 242 5 0 0 0 - - -, f 5;
#X obj 483 39 vsl 30 128 0 127 0 0 empty empty empty 0 -9 0 10 -262144
-1 -1 6300 1;
#X obj 483 195 int;
#X obj 566 40 vsl 30 128 0 127 0 0 empty empty empty 0 -9 0 10 -262144
-1 -1 6300 1;
#X obj 566 196 int;
#X obj 652 39 vsl 30 128 0 127 0 0 empty empty empty 0 -9 0 10 -262144
-1 -1 6300 1;
#X obj 652 195 int;
#X obj 398 218 - 63;
#X floatatom 483 244 5 0 0 0 - - -, f 5;
#X obj 483 220 - 63;
#X floatatom 566 245 5 0 0 0 - - -, f 5;
#X obj 566 221 - 63;
#X floatatom 652 245 5 0 0 0 - - -, f 5;
#X obj 652 221 - 63;
#X obj 398 265 +;
#X obj 483 265 +;
#X obj 566 269 +;
#X obj 652 268 +;
#X obj 386 303 noteout 17;
#X obj 476 303 noteout 18;
#X obj 558 304 noteout 19;
#X obj 640 303 noteout 20;
#X obj 398 3 ctlin 12 17;
#X obj 483 3 ctlin 13 17;
#X obj 567 3 ctlin 14 17;
#X obj 652 3 ctlin 15 17;
#X obj 84 176 notein 19;
#X obj 160 175 notein 20;
#X obj 237 175 notein 21;
#X obj 320 175 notein 22;
#X obj 491 174 notein 23;
#X obj 573 174 notein 24;
#X obj 658 174 notein 25;
#X obj 405 174 notein 21;
#X connect 0 0 1 0;
#X connect 1 0 14 0;
#X connect 2 0 21 0;
#X connect 3 0 4 0;
#X connect 4 0 16 0;
#X connect 5 0 6 0;
#X connect 6 0 18 0;
#X connect 7 0 8 0;
#X connect 8 0 20 0;
#X connect 9 0 25 0;
#X connect 10 0 0 0;
#X connect 11 0 3 0;
#X connect 12 0 5 0;
#X connect 13 0 7 0;
#X connect 14 0 2 0;
#X connect 15 0 22 0;
#X connect 16 0 15 0;
#X connect 17 0 23 0;
#X connect 18 0 17 0;
#X connect 19 0 24 0;
#X connect 20 0 19 0;
#X connect 21 0 26 0;
#X connect 22 0 27 0;
#X connect 23 0 28 0;
#X connect 25 0 0 0;
#X connect 25 0 3 0;
#X connect 25 0 5 0;
#X connect 25 0 7 0;
#X connect 25 0 30 0;
#X connect 25 0 33 0;
#X connect 25 0 35 0;
#X connect 25 0 37 0;
#X connect 30 0 31 0;
#X connect 31 0 39 0;
#X connect 32 0 46 0;
#X connect 33 0 34 0;
#X connect 34 0 41 0;
#X connect 35 0 36 0;
#X connect 36 0 43 0;
#X connect 37 0 38 0;
#X connect 38 0 45 0;
#X connect 39 0 32 0;
#X connect 40 0 47 0;
#X connect 41 0 40 0;
#X connect 42 0 48 0;
#X connect 43 0 42 0;
#X connect 44 0 49 0;
#X connect 45 0 44 0;
#X connect 46 0 50 0;
#X connect 47 0 51 0;
#X connect 48 0 52 0;
#X connect 54 0 30 0;
#X connect 55 0 33 0;
#X connect 56 0 35 0;
#X connect 57 0 37 0;
#X connect 58 0 21 1;
#X connect 58 1 26 1;
#X connect 59 0 22 1;
#X connect 59 1 27 1;
#X connect 60 0 23 1;
#X connect 60 1 28 1;
#X connect 61 0 24 1;
#X connect 62 0 47 1;
#X connect 62 1 51 1;
#X connect 63 0 48 1;
#X connect 63 1 52 1;
#X connect 64 0 49 1;
#X connect 65 0 46 1;
#X connect 65 1 50 1;
