#N canvas 534 99 707 692 10;
#X floatatom 381 59 0 0 0 0 - - -;
#X floatatom 343 59 0 0 0 0 - - -;
#X floatatom 419 58 0 0 0 0 - - -;
#X obj 343 32 ctlin;
#X obj 326 231 pack s f s f s f;
#X obj 300 101 bng 15 250 50 0 empty empty empty 17 7 0 10 -262144
-1 -1;
#X msg 355 174 symbol ctl;
#X obj 302 125 t s s s;
#X floatatom 83 59 0 0 0 0 - - -;
#X floatatom 39 61 0 0 0 0 - - -;
#X obj 21 93 bng 15 250 50 0 empty empty empty 17 7 0 10 -262144 -1
-1;
#X obj 67 27 notein;
#X floatatom 123 62 0 0 0 0 - - -;
#X obj 24 122 t s s s;
#X obj 41 227 pack s f s f s f;
#X msg 8 173 symbol nt;
#X msg 91 173 symbol vel;
#X msg 273 174 symbol val;
#X msg 448 174 symbol m;
#X msg 181 174 symbol m;
#X obj 47 277 spigot;
#X obj 109 252 tgl 15 1 empty empty empty 17 7 0 10 -262144 -1 -1 1
1;
#X obj 352 278 spigot;
#X obj 412 256 tgl 15 1 empty empty empty 17 7 0 10 -262144 -1 -1 1
1;
#X obj 50 308 print -n;
#X obj 353 311 print -n;
#X connect 0 0 4 1;
#X connect 1 0 5 0;
#X connect 1 0 4 3;
#X connect 2 0 4 5;
#X connect 3 0 1 0;
#X connect 3 1 0 0;
#X connect 3 2 2 0;
#X connect 4 0 22 0;
#X connect 5 0 7 0;
#X connect 6 0 4 0;
#X connect 7 0 17 0;
#X connect 7 1 6 0;
#X connect 7 2 18 0;
#X connect 8 0 14 3;
#X connect 9 0 10 0;
#X connect 9 0 14 1;
#X connect 10 0 13 0;
#X connect 11 0 9 0;
#X connect 11 1 8 0;
#X connect 11 2 12 0;
#X connect 12 0 14 5;
#X connect 13 0 15 0;
#X connect 13 1 16 0;
#X connect 13 2 19 0;
#X connect 14 0 20 0;
#X connect 15 0 14 0;
#X connect 16 0 14 2;
#X connect 17 0 4 2;
#X connect 18 0 4 4;
#X connect 19 0 14 4;
#X connect 20 0 24 0;
#X connect 21 0 20 1;
#X connect 22 0 25 0;
#X connect 23 0 22 1;
