#N canvas 1340 355 561 598 10;
#X obj 113 528 dac~;
#X obj 91 142 mtof;
#X obj 90 39 notein;
#X obj 91 98 stripnote;
#X floatatom 145 134 5 0 0 0 - - -;
#N canvas 894 544 640 439 amplifiers 0;
#X obj 150 95 * 0.5;
#X obj 130 122 pack;
#X obj 123 65 / 127;
#X msg 114 155 \$1 5 \, \$2 200 5;
#X obj 218 69 sel 0;
#X obj 127 208 vline~;
#X obj 43 16 inlet~;
#X obj 106 244 *~;
#X obj 106 267 outlet~;
#X obj 124 17 inlet;
#X obj 206 16 inlet;
#X obj 317 56 receive relRate;
#X obj 317 92 * 20;
#X msg 242 177 0 \$1;
#X obj 281 95 bng 15 250 50 0 empty empty empty 17 7 0 10 -262144 -1
-1;
#X obj 292 143 f;
#X obj 371 87 loadbang;
#X msg 369 117 700;
#X connect 0 0 1 1;
#X connect 1 0 3 0;
#X connect 2 0 0 0;
#X connect 2 0 1 0;
#X connect 3 0 5 0;
#X connect 4 0 14 0;
#X connect 5 0 7 1;
#X connect 6 0 7 0;
#X connect 7 0 8 0;
#X connect 9 0 2 0;
#X connect 10 0 4 0;
#X connect 11 0 12 0;
#X connect 12 0 15 1;
#X connect 13 0 5 0;
#X connect 14 0 15 0;
#X connect 15 0 13 0;
#X connect 16 0 17 0;
#X connect 17 0 15 1;
#X restore 92 356 pd amplifiers;
#N canvas 1261 718 450 300 oscillators 0;
#X obj 33 19 inlet;
#X floatatom 33 42 5 0 0 0 - - -;
#X obj 34 106 phasor~;
#X obj 148 106 phasor~;
#X obj 147 145 expr~ $v1 *2 + 1;
#X obj 34 145 expr~ $v1 *2 + 1;
#X obj 145 79 * 1.001;
#X obj 33 219 outlet~;
#X connect 0 0 1 0;
#X connect 1 0 2 0;
#X connect 1 0 6 0;
#X connect 2 0 5 0;
#X connect 3 0 4 0;
#X connect 4 0 7 0;
#X connect 5 0 7 0;
#X restore 91 213 pd oscillators;
#N canvas 1469 735 450 300 filters 0;
#X obj 48 212 bob~;
#X obj 111 10 loadbang;
#X msg 113 43 300;
#X msg 113 43;
#X msg 153 43 1.5;
#X obj 49 252 outlet~;
#X obj 20 11 inlet~;
#X obj 208 12 receive cutoff1;
#X obj 209 40 / 127;
#X obj 210 65 pow 4;
#X obj 210 93 * 10000;
#X obj 210 124 + 20;
#X connect 0 0 5 0;
#X connect 1 0 2 0;
#X connect 1 0 3 0;
#X connect 1 0 4 0;
#X connect 2 0 0 1;
#X connect 4 0 0 2;
#X connect 6 0 0 0;
#X connect 7 0 8 0;
#X connect 8 0 9 0;
#X connect 9 0 10 0;
#X connect 10 0 11 0;
#X connect 11 0 0 1;
#X restore 92 287 pd filters;
#X floatatom 211 42 5 0 0 0 - - -;
#X floatatom 345 40 5 0 0 0 - - -;
#X obj 207 86 send cutoff1;
#X obj 345 85 send relRate;
#X obj 100 442 *~ 1;
#X msg 270 268 \; pd dsp \$1;
#X msg 267 219 1;
#X msg 310 218 0;
#X obj 264 164 loadbang;
#X connect 1 0 6 0;
#X connect 2 0 3 0;
#X connect 2 1 3 1;
#X connect 2 1 5 2;
#X connect 3 0 1 0;
#X connect 3 1 4 0;
#X connect 4 0 5 1;
#X connect 5 0 12 0;
#X connect 6 0 7 0;
#X connect 7 0 5 0;
#X connect 8 0 10 0;
#X connect 9 0 11 0;
#X connect 12 0 0 0;
#X connect 12 0 0 1;
#X connect 14 0 13 0;
#X connect 15 0 13 0;
#X connect 16 0 14 0;
