#N canvas 116 222 1202 759 10;
#X obj 191 295 pack f f;
#X obj 502 476 table \$0-note_states 128;
#X obj 240 413 spigot 1;
#X obj 345 351 spigot 0;
#X obj 345 380 stripnote;
#X obj 234 510 tabwrite \$0-note_states;
#X msg 242 464 \$2 \$1;
#X obj 518 131 t f f;
#X obj 293 380 == 0;
#X obj 515 174 sel 0;
#X msg 515 196 128;
#X obj 515 218 t f b;
#X obj 475 258 until;
#X obj 478 295 f 0;
#X obj 515 295 + 1;
#X msg 542 256 0;
#X obj 483 328 t f f;
#X obj 510 354 tabread \$0-note_states;
#X obj 510 376 != 0;
#X obj 474 415 spigot 0;
#X msg 474 445 \$1 0;
#X obj 342 406 pack f f;
#X obj 518 109 == 100;
#X obj 87 91 / 683;
#X obj 243 91 / 683;
#X obj 409 82 / 683;
#X obj 12 115 +;
#X obj 173 117 +;
#X obj 340 117 +;
#X obj 11 149 + 0.5;
#X obj 173 146 + 0.5;
#X obj 341 146 + 0.5;
#X obj 12 181 int;
#X obj 172 184 int;
#X obj 341 181 int;
#X obj 56 20 bng 15 250 50 0 empty empty empty 17 7 0 10 -262144 -1
-1;
#X obj 210 18 bng 15 250 50 0 empty empty empty 17 7 0 10 -262144 -1
-1;
#X obj 379 13 bng 15 250 50 0 empty empty empty 17 7 0 10 -262144 -1
-1;
#X obj 18 219 - 12;
#X obj 172 221 - 12;
#X obj 340 221 - 12;
#X text 106 10 strumpad midi 14/15/16;
#X text 520 12 chord-plus midi ch 3 (release);
#X text 676 139 play with manual-chord and chord-plus lights on. Sustain
the strum notes by holding the chord button then lift to release.;
#X text 461 504 (table stores midi note off until released);
#X text 23 577 http://johnboyd.users.sonic.net/qchordSUS.pd;
#X obj 14 55 notein 30;
#X obj 88 56 bendin 30;
#X obj 171 59 notein 31;
#X obj 246 58 bendin 31;
#X obj 338 55 notein 32;
#X obj 415 54 bendin 32;
#X obj 582 112 bng 15 250 50 0 empty empty empty 17 7 0 10 -262144
-1 -1;
#X obj 503 75 notein 19;
#X obj 444 537 noteout 11;
#X text 451 563 midi 11 out;
#X connect 0 0 2 0;
#X connect 0 0 3 0;
#X connect 2 0 6 0;
#X connect 2 0 54 0;
#X connect 3 0 4 0;
#X connect 4 0 21 0;
#X connect 4 1 21 1;
#X connect 6 0 5 0;
#X connect 7 0 3 1;
#X connect 7 0 8 0;
#X connect 7 1 9 0;
#X connect 8 0 2 1;
#X connect 9 0 10 0;
#X connect 10 0 11 0;
#X connect 11 0 12 0;
#X connect 11 1 15 0;
#X connect 12 0 13 0;
#X connect 13 0 14 0;
#X connect 13 0 16 0;
#X connect 14 0 13 1;
#X connect 15 0 13 1;
#X connect 16 0 19 0;
#X connect 16 1 17 0;
#X connect 17 0 18 0;
#X connect 18 0 19 1;
#X connect 19 0 20 0;
#X connect 20 0 5 0;
#X connect 20 0 54 0;
#X connect 21 0 6 0;
#X connect 21 0 54 0;
#X connect 22 0 7 0;
#X connect 23 0 26 1;
#X connect 24 0 27 1;
#X connect 25 0 28 1;
#X connect 26 0 29 0;
#X connect 27 0 30 0;
#X connect 28 0 31 0;
#X connect 29 0 32 0;
#X connect 30 0 33 0;
#X connect 31 0 34 0;
#X connect 32 0 38 0;
#X connect 33 0 39 0;
#X connect 34 0 40 0;
#X connect 38 0 0 0;
#X connect 39 0 0 0;
#X connect 40 0 0 0;
#X connect 46 0 26 0;
#X connect 46 1 0 1;
#X connect 46 1 35 0;
#X connect 47 0 23 0;
#X connect 48 0 27 0;
#X connect 48 1 0 1;
#X connect 48 1 36 0;
#X connect 49 0 24 0;
#X connect 50 0 28 0;
#X connect 50 1 0 1;
#X connect 50 1 37 0;
#X connect 51 0 25 0;
#X connect 53 1 22 0;
#X connect 53 1 52 0;
